<?xml version="1.0" encoding="UTF-8"?>
<svg id="Meteorite" xmlns="http://www.w3.org/2000/svg" xmlns:xlink="http://www.w3.org/1999/xlink" viewBox="0 0 507.68 244.37">
  <defs>
    <style>
      .cls-1 {
        fill: #ed4d16;
      }

      .cls-2 {
        stroke-width: 1.19px;
      }

      .cls-2, .cls-3, .cls-4, .cls-5 {
        stroke: #000;
        stroke-miterlimit: 10;
      }

      .cls-3 {
        stroke-width: 1.58px;
      }

      .cls-4 {
        stroke-width: 1.91px;
      }

      .cls-5 {
        stroke-width: 1.51px;
      }

      .cls-6 {
        fill: #f99c0a;
      }

      .cls-7 {
        fill: url(#linear-gradient);
      }
    </style>
    <linearGradient id="linear-gradient" x1="41.47" y1="119.57" x2="202.9" y2="119.57" gradientUnits="userSpaceOnUse">
      <stop offset="0" stop-color="#9f6c66"/>
      <stop offset="1" stop-color="#674642"/>
    </linearGradient>
  </defs>
  <circle id="Outer_flame" data-name="Outer flame" class="cls-6" cx="122.18" cy="122.18" r="122.18"/>
  <path id="TAILS_yellow_" data-name="TAILS (yellow)" class="cls-6" d="m240.28,190.12h0c0,5.81,4.14,10.52,9.25,10.52h87.14c8.29,0,15.02,7.65,15.02,17.09v4.35c0,9.44-6.72,17.09-15.02,17.09h-183.58c-8.29,0-15.02-7.65-15.02-17.09h0s-14.8,0-14.8,0c-8.29,0-15.02-7.65-15.02-17.09v-17.82c0-9.44,6.72-17.09,15.02-17.09h0c3.19,0,5.78-2.94,5.78-6.57v-13.02c0-3.17-1.99-5.88-4.74-6.46-4.9-1.05-11.79-4.66-11.46-16.7v-17.82c0-9.44,6.72-17.09,15.02-17.09h28.72c1.99,0,3.6-1.83,3.6-4.1h0c0-2.26-1.61-4.1-3.6-4.1h-38.94c-8.29,0-15.02-7.65-15.02-17.09v-17.82c0-9.44,6.72-17.09,15.02-17.09h20.42v-9.93c0-9.44,6.72-17.09,15.02-17.09h258.28c8.29,0,15.02,7.65,15.02,17.09v7.99c0,9.44-6.72,17.09-15.02,17.09h-168.96c-4.28,0-7.75,3.95-7.75,8.81h0c0,4.87,3.47,8.81,7.75,8.81h129.54c8.29,0,15.02,7.65,15.02,17.09v4.35c0,9.44-6.72,17.09-15.02,17.09h-112.67c-7.95,0-14.4,7.33-14.4,16.38h0c0,9.05,6.45,16.38,14.4,16.38h133.86c63.26,0,63.9,43.32.65,43.32h-144.25c-5.11,0-9.25,4.71-9.25,10.52Z"/>
  <circle id="Inner_flame" data-name="Inner flame" class="cls-1" cx="122.18" cy="122.18" r="99.27"/>
  <g id="Meteorite-2" data-name="Meteorite">
    <path id="Outline" class="cls-7" d="m73.9,59.71l67.05-12.13c4.55-.82,9.23.55,12.61,3.7l44.66,41.56c3.39,3.16,5.09,7.73,4.59,12.33l-2.95,27.18c-.38,3.49-1.99,6.73-4.55,9.13l-.58.54c-2.1,1.97-3.49,4.58-3.95,7.42l-1.11,6.81c-.7,4.31-3.28,8.09-7.05,10.3l-25.32,14.89c-1.21.71-2.52,1.25-3.88,1.59l-33.31,8.33c-2.34.58-4.78.58-7.12,0l-31.93-7.98c-.99-.25-1.95-.6-2.87-1.04l-13.76-6.7c-2.51-1.22-4.61-3.13-6.07-5.5l-14.7-23.89c-1.64-2.67-2.39-5.79-2.13-8.9l3.01-36.44c.19-2.32.93-4.56,2.16-6.53l17.35-27.95c2.19-3.53,5.77-5.96,9.86-6.7Z"/>
    <g id="Craters">
      <path class="cls-4" d="m108.35,53.47c-2.25.41-3.65,5.31-4.29,8.21-.28,1.28.13,2.62,1.07,3.53l4.15,4.01c1.03.99,2.53,1.32,3.88.86l11.82-4.1c1.88-.65,5-2.45,4.64-4.34-.03-.16-.31-7.83-3.6-9.08-1.87-.71-4.28-1.5-5.35-1.31l-12.32,2.23Z"/>
      <path class="cls-5" d="m80.21,100.74c0,.63.17,1.25.5,1.79,1.27,2.11,4.55,7.57,4.55,8.03,0,.4,5.45.24,8.69.11,1.42-.06,2.65-.97,3.12-2.31l.11-.31c.04-.11.11-.2.21-.26l.87-.52c1.05-.62,1.69-1.75,1.69-2.97h0c0-.21.18-.33.34-.47.64-.56,1.52-1.09,1.72-1.14.16-.04.04-1.15-.22-2.2-.18-.71-.56-1.34-1.11-1.82l-4.55-3.9-2.53-2.85c-.53-.59-1.24-.99-2.02-1.12l-2.58-.43c-.87-.14-1.76.05-2.49.53l-1.94,1.3-1.02.23c-1.03.23-1.9.93-2.36,1.89l-.65,1.37c-.22.46-.34.97-.34,1.49v3.56Z"/>
      <path class="cls-4" d="m141.62,97.12l1.58,6.44c.07.3.22.58.42.81l2.6,2.97c.36.42.89.65,1.44.65h1.39c.7,0,1.39.17,2.01.49l1.59.81c.41.21.87.27,1.32.16l2.07-.49,2.63-.72c.59-.16,1.07-.59,1.29-1.17l.8-2.1c.2-.53.56-.98,1.02-1.3l1.39-.97c.38-.26.64-.65.76-1.09l.48-1.83c.19-.74-.07-1.52-.67-1.99l-6.93-5.46c-.07-.06-.15-.11-.23-.15h0c-.82-.47-1.86-.28-2.46.45l-1.12,1.38-.32.21c-.92.6-2.13.46-2.9-.33l-1.16-1.2c-.24-.24-.53-.42-.86-.51l-1.76-.49c-.74-.21-1.54.05-2.02.65l-1.81,2.28c-.56.7-.76,1.62-.55,2.48Z"/>
      <path class="cls-4" d="m43.77,129.68l6.74-2.24c1.64-.55,3.45-.26,4.85.77,2.06,1.51,4.8,3.58,4.9,3.88s2.43,4.76,4.2,8.11c1.15,2.19.65,4.88-1.22,6.5l-.45.39c-.88.76-1.33,1.9-1.23,3.05l.38,4.33c.07.74-.02,1.49-.27,2.2l-.34,1c-.74,2.16-2.77,3.6-5.04,3.6h0c-1.85,0-3.57-.96-4.54-2.54l-5.49-8.92c-.1-.17-.2-.35-.28-.53l-2.63-5.6c-.23-.49-.39-1.02-.46-1.56l-.48-3.58c-.05-.38-.06-.77-.03-1.15l.55-6.65c.04-.5.38-.92.85-1.08Z"/>
      <path class="cls-2" d="m91.71,160.38l1.53-1.82c.35-.42.83-.7,1.36-.81l1.12-.23c.52-.11.99-.37,1.36-.75l2.12-2.22c.47-.49,1.12-.76,1.79-.74l4.11.1c.57.01,1.12.23,1.54.61l1.31,1.17c.46.42,1.06.65,1.68.66l1.56.03c.89.02,1.7.53,2.1,1.32l.2.4c.18.35.26.74.25,1.13l-.11,4.25c-.02.7-.34,1.36-.88,1.8h0c-.24.19-.51.34-.8.43l-.74.23c-.45.14-.86.4-1.18.76l-1.51,1.71c-.08.09-.16.17-.25.24l-1.33,1.13c-.25.21-.55.37-.87.47l-2.83.84c-.39.12-.8.13-1.19.05l-3.13-.68c-.31-.07-.6-.2-.86-.38l-2.96-2.07c-.16-.11-.3-.24-.43-.38l-2.16-2.45c-.16-.18-.28-.38-.38-.59l-.77-1.69c-.38-.84-.25-1.83.35-2.53Z"/>
      <path class="cls-3" d="m174.95,170.57l8.53-5.06c.24-.14.47-.31.68-.5.99-.87,3.7-3.48,4.23-6.38.47-2.62,1.28-6.47,1.68-8.32.15-.71.13-1.44-.06-2.14l-.62-2.3c-.32-1.2-1.12-2.22-2.22-2.82l-7.85-4.3c-.67-.37-1.43-.56-2.2-.56h-5.92c-2.07,0-3.88,1.39-4.41,3.39h0c-.26.96-1.09,1.66-2.09,1.75l-3.38.3c-1.56.14-2.95,1.07-3.66,2.47l-2.45,4.79c-.55,1.07-.65,2.31-.29,3.45l2.53,8.05c.45,1.44,1.59,2.56,3.03,3l6.44,1.96c.51.15.95.47,1.25.91l.71,1.01c1.37,1.95,4.02,2.52,6.07,1.3Z"/>
    </g>
  </g>
  <g id="Small_flames" data-name="Small flames">
    <ellipse class="cls-6" cx="409.57" cy="79.1" rx="20.26" ry="15.14"/>
    <ellipse class="cls-6" cx="362.3" cy="195.67" rx="19.83" ry="8.76"/>
    <ellipse class="cls-6" cx="459.99" cy="189.58" rx="25.31" ry="14.84"/>
    <ellipse class="cls-6" cx="475.56" cy="104.32" rx="32.12" ry="10.08"/>
    <ellipse class="cls-6" cx="474.59" cy="36.1" rx="31.14" ry="10.76"/>
  </g>
  <g id="Small_flames_red_" data-name="Small flames (red)">
    <ellipse class="cls-1" cx="469.35" cy="37.19" rx="13.63" ry="1.92"/>
    <ellipse class="cls-1" cx="473.97" cy="105.16" rx="12.9" ry="2.55"/>
    <ellipse class="cls-1" cx="408.11" cy="80.54" rx="10.71" ry="2.43"/>
    <ellipse class="cls-1" cx="457.55" cy="190.43" rx="11.8" ry="2.92"/>
    <ellipse class="cls-1" cx="360.14" cy="196.27" rx="8.56" ry="1.95"/>
    <ellipse class="cls-1" cx="353.68" cy="160.32" rx="49" ry="2.98"/>
    <ellipse class="cls-1" cx="346.05" cy="19.81" rx="49" ry="2.98"/>
    <ellipse class="cls-1" cx="255.42" cy="224.56" rx="49" ry="2.98"/>
    <ellipse class="cls-1" cx="305.82" cy="83.52" rx="49" ry="2.98"/>
  </g>
</svg>