<?xml version="1.0" encoding="UTF-8"?>
<svg id="Meteorites_score_" data-name="Meteorites (score)" xmlns="http://www.w3.org/2000/svg" viewBox="0 0 240.08 522.69">
  <defs>
    <style>
      .cls-1 {
        fill: #4d4d4d;
      }

      .cls-2 {
        fill: gray;
      }

      .cls-3 {
        fill: #999;
      }

      .cls-4 {
        fill: #97272d;
      }
    </style>
  </defs>
  <g id="Missile">
    <g id="Wings">
      <polygon class="cls-1" points="124.6 357.54 1.18 420.95 1.18 516.8 124.6 493.48 124.6 357.54"/>
      <polygon class="cls-1" points="116.66 357.54 240.08 420.95 240.08 516.8 116.66 493.48 116.66 357.54"/>
    </g>
    <polygon class="cls-2" points="50.5 317.55 124.45 317.56 198.39 317.58 132.1 495.67 116.03 495.52 50.5 317.55"/>
    <path class="cls-1" d="m208.92,72.62v241.19c0,2.58-2.42,4.67-5.4,4.67H45.68c-2.98,0-5.4-2.1-5.4-4.67V72.62C40.28,32.45,78.03-.11,124.6-.11c23.28,0,44.36,8.13,59.63,21.3,15.25,13.17,24.69,31.34,24.69,51.43Z"/>
    <rect class="cls-3" x="35.28" y="124.52" width="178.65" height="12.92" rx="5.36" ry="5.36"/>
    <rect class="cls-3" x="35.28" y="305.57" width="178.65" height="12.92" rx="5.36" ry="5.36"/>
    <rect class="cls-3" x="62.62" y="464.31" width="123.97" height="17.72"/>
    <path class="cls-4" d="m208.92,72.62v51.89H40.28v-51.89C40.28,32.45,78.03-.11,124.6-.11c23.28,0,44.36,8.13,59.63,21.3,15.25,13.17,24.69,31.34,24.69,51.43Z"/>
    <polygon class="cls-1" points="125.77 375.17 123.38 375.17 121.33 452.73 121.91 522.69 126.99 522.69 127.38 452.62 125.77 375.17"/>
  </g>
</svg>