<?xml version="1.0" encoding="UTF-8"?>
<svg id="Spaceship-2" data-name="Spaceship" xmlns="http://www.w3.org/2000/svg" xmlns:xlink="http://www.w3.org/1999/xlink" viewBox="0 0 748.11 404.88">
  <defs>
    <style>
      .cls-1 {
        fill: #ed4d16;
      }

      .cls-2 {
        fill: #d7d5d5;
      }

      .cls-3 {
        fill: #fff;
      }

      .cls-4 {
        fill: #2ba0cf;
      }

      .cls-5 {
        opacity: .5;
      }

      .cls-6 {
        fill: #1b6aa3;
      }

      .cls-7 {
        fill: #aaacac;
      }

      .cls-8 {
        fill: #4ace4e;
      }

      .cls-9 {
        fill: #b5024b;
      }

      .cls-10 {
        fill: #787878;
      }

      .cls-11 {
        clip-path: url(#clippath);
      }

      .cls-12 {
        fill: #1a0630;
      }

      .cls-13 {
        fill: none;
      }

      .cls-14 {
        fill: #f99c0a;
      }

      .cls-15 {
        opacity: .61;
      }
    </style>
    <clipPath id="clippath">
      <path class="cls-13" d="m547.07,181.95c1.3.73,15.13-5.9,15.95-6.54s5.83-6.44,4.25-10.9c-1.58-4.45-4.04-12.11-10.21-11.79s-9.13-2.37-11.83,2.92c-2.7,5.29-3.95,15.03-2,16.57,1.95,1.53,3.08,9.31,3.84,9.74Z"/>
    </clipPath>
  </defs>
  <polygon class="cls-14" points="563.52 297.64 596.92 282.81 583.48 294.45 604.1 295.47 584.31 304.61 607.05 307.64 591.38 312.03 599.98 319.57 582.07 318.63 591.38 327.82 578.18 323.58 581.95 335.79 562.75 322.91 563.52 297.64"/>
  <rect class="cls-12" x="508.45" y="274.56" width="5.57" height="25.66"/>
  <g id="Yellow_flames" data-name="Yellow flames">
    <rect class="cls-14" x="5.64" y="248.74" width="48.03" height="8.71" rx="4.36" ry="4.36"/>
    <rect class="cls-14" x="10.32" y="223.8" width="50.56" height="8.56" rx="3.24" ry="3.24"/>
    <rect class="cls-14" x="0" y="185.33" width="48.03" height="12.95" rx="6.47" ry="6.47"/>
    <rect class="cls-14" x="32.65" y="163.9" width="30.77" height="8.89" rx="4.44" ry="4.44"/>
    <path class="cls-14" d="m243,252.56v8.04h41.2v13.95H123.57c-3.85,0-6.98-3.12-6.98-6.98h0c0-2.56-2.07-4.63-4.63-4.63h-29.6c-3.85,0-6.98-3.12-6.98-6.98h0c0-3.86,3.12-6.98,6.98-6.98h57.78c2.07,0,3.74-1.67,3.74-3.74h0c0-2.07-1.67-3.74-3.74-3.74h-41.07c-3.85,0-6.98-3.12-6.98-6.98h0c0-3.86,3.12-6.98,6.98-6.98h15.87c2.76,0,4.99-2.23,4.99-4.99h0c0-2.76-2.23-4.99-4.99-4.99h-55.97c-3.85,0-6.98-3.12-6.98-6.98h0c0-3.85,3.12-6.98,6.98-6.98h45.59c2.49,0,4.51-2.02,4.51-4.51h0c0-2.49-2.02-4.51-4.51-4.51h-27.49c-3.85,0-6.98-3.12-6.98-6.98h0c0-3.86,3.12-6.98,6.98-6.98h41.74c2.93,0,5.3-2.37,5.3-5.3h0c0-2.93-2.37-5.3-5.3-5.3h-12.5c-3.85,0-6.98-3.12-6.98-6.98h0c0-2.19-1.77-3.96-3.96-3.96h-27.49c-3.85,0-6.98-3.12-6.98-6.98h0c0-3.86,3.12-6.98,6.98-6.98h160.63s0,10.94,0,10.94h38.42v12.49h24.78v13.96h-54.02v9.26h38.98v13.95h-57.08v9.45h67.94v13.95h-27.85v9.44h51.79v13.96h-68.49Z"/>
  </g>
  <g id="Red_flames" data-name="Red flames">
    <rect class="cls-1" x="110.33" y="184.77" width="24.39" height="6.13" rx="3.06" ry="3.06"/>
    <rect class="cls-1" x="106.1" y="148.76" width="34.18" height="6.13" rx="3.06" ry="3.06"/>
    <rect class="cls-1" x="117.7" y="230.63" width="18.63" height="6.13" rx="3.06" ry="3.06"/>
    <rect class="cls-1" x="134.71" y="263.33" width="13.32" height="6.13" rx="3.06" ry="3.06"/>
    <rect class="cls-1" x="11.21" y="190.9" width="26.59" height="2.66" rx="1.33" ry="1.33"/>
    <rect class="cls-1" x="43.19" y="167.02" width="9.68" height="2.66" rx="1.33" ry="1.33"/>
    <rect class="cls-1" x="25.06" y="227.11" width="18.86" height="3.32" rx="1.66" ry="1.66"/>
    <path class="cls-1" d="m297.01,208.2v5.93h28.29v13.95h-10.89v11.06h17.99v13.95h-9.19v13.96h-160.63c-3.85,0-6.98-3.12-6.98-6.98h0c0-3.86,3.12-6.98,6.98-6.98h0c1.22,0,2.21-.99,2.21-2.21v-3.48c0-3.14-2.55-5.69-5.69-5.69h-5.33c-3.85,0-6.98-3.12-6.98-6.98h0c0-3.85,3.12-6.98,6.98-6.98h0c2.16,0,3.92-1.75,3.92-3.92v-.67c0-2.53-2.05-4.59-4.59-4.59h-16.73c-3.85,0-6.98-3.12-6.98-6.98h0c0-3.85,3.12-6.98,6.98-6.98h30.71c2.45,0,4.43-1.98,4.43-4.43h0c0-2.45-1.98-4.43-4.43-4.43h-13.31c-3.85,0-6.98-3.12-6.98-6.98h0c0-3.86,3.12-6.98,6.98-6.98h0c1.01,0,1.83-.82,1.83-1.83v-2.91c0-2.62-2.12-4.74-4.74-4.74h-9.48c-3.85,0-6.98-3.12-6.98-6.98h0c0-3.85,3.12-6.98,6.98-6.98h160.63s0,9.69,0,9.69h21.19v13.95h-8.81v12.22h24.72v13.95h-42.12Z"/>
  </g>
  <g id="Wing_front-high_" data-name="Wing (front-high)">
    <path class="cls-10" d="m378.99,277.73h101.65c3.87,0,6.82,3.44,6.24,7.27-3.84,25.35-28.76,108.65-190.35,114.51-6.04.22-8.9-7.36-4.23-11.19,15.26-12.52,38-31.32,42.21-35.54,18.23-18.23,30.73-34.55,38.3-70.06.62-2.91,3.2-4.99,6.17-4.99Z"/>
  </g>
  <rect class="cls-12" x="464.57" y="273.25" width="5.57" height="25.66"/>
  <g id="Plane-body">
    <path class="cls-7" d="m643,209.42c0,20.27-8.21,38.61-21.49,51.9-13.28,13.28-31.63,21.49-51.9,21.49H218.21c-18.91,0-34.25-32.86-34.25-73.39s15.33-73.4,34.25-73.4h240.81c-.44,2.07-.67,4.18-.67,6.32,0,24.11,28.33,43.65,63.27,43.65s63.27-19.54,63.27-43.65c0-1.62-.13-3.23-.39-4.81,33.39,6.88,58.49,36.45,58.49,71.88Z"/>
  </g>
  <g id="Wing_behind_" data-name="Wing (behind)">
    <path class="cls-2" d="m333.9,141.06l117.12.92c4.46.03,7.89-3.9,7.26-8.32C454.08,104.42,426.12,8.21,240,0c-6.95-.31-10.32,8.4-4.98,12.86,17.46,14.57,43.5,36.43,48.31,41.33,20.84,21.17,35.1,40.08,43.5,81.07.69,3.36,3.64,5.77,7.07,5.8Z"/>
  </g>
  <rect id="Cannon" class="cls-12" x="398.96" y="293.93" width="164.54" height="32.28" rx="7.38" ry="7.38"/>
  <g id="Wing_front-low_" data-name="Wing (front-low)">
    <path class="cls-2" d="m319.44,266.39h115.59c4.4,0,7.76,3.91,7.1,8.26-4.37,28.83-32.71,123.56-216.46,130.22-6.86.25-10.12-8.37-4.81-12.73,17.35-14.24,43.21-35.62,48-40.41,20.73-20.73,34.95-39.29,43.56-79.67.71-3.31,3.64-5.67,7.02-5.67Z"/>
  </g>
  <g id="Cockpit-BG" class="cls-15">
    <path class="cls-9" d="m584.9,142.39c0,24.11-28.33,43.65-63.27,43.65s-63.27-19.54-63.27-43.65c0-2.15.22-4.26.67-6.32h110.59c5.1,0,10.09.52,14.9,1.52.26,1.58.39,3.18.39,4.81Z"/>
  </g>
  <g id="Nose">
    <path class="cls-2" d="m748.11,209.85c0-1.92-24.15-4.14-26.18-4.15-48.3-1.52-58.62-6.28-83.61-21.04v50.38c25-14.76,35.32-19.51,83.63-21.04,2.03-.01,26.16-2.24,26.16-4.15Z"/>
  </g>
  <g id="Steering_wheel" data-name="Steering wheel">
    <g class="cls-11">
      <g id="Steering_wheel-2" data-name="Steering wheel">
        <path d="m563.48,169.02c-.12,0-.24-.02-.36-.05l-16.61-4.61c-.73-.2-1.15-.95-.95-1.68.2-.73.95-1.15,1.68-.95l16.61,4.61c.73.2,1.15.95.95,1.68-.17.6-.72,1-1.31,1Z"/>
        <path d="m553.16,183.87s-.09,0-.13,0c-.75-.07-1.3-.74-1.23-1.49l1.66-17.15c.07-.75.73-1.3,1.49-1.23.75.07,1.3.74,1.23,1.49l-1.66,17.15c-.07.7-.66,1.23-1.36,1.23Z"/>
        <path d="m552.11,172.81c-.55.64-1.5.75-2.18.28-1.44-1.01-2.67-2.39-3.48-4-.81-1.6-1.21-3.39-1.21-5.16.04-3.6,1.54-7.3,4.84-9.2,1.89-.99,3.42,1.68,1.64,2.83-1.85,1.32-2.82,3.67-2.9,6.03-.04,1.38.22,2.76.79,3.95.52,1.11,1.3,2.09,2.27,2.92.73.57.83,1.64.23,2.34Z"/>
        <path d="m560,156.57c5.44,3.24,6.58,10.89,3.56,16.13-.83,1.43-2.07,2.69-3.41,3.67-1.69,1.3-3.67-1.11-2.07-2.52,2.25-1.8,3.57-4.48,3.54-7.35.03-2.63-1.09-5.62-3.27-7.09-1.8-1.14-.24-3.83,1.64-2.83h0Z"/>
      </g>
    </g>
  </g>
  <g id="Martian">
    <g id="Hand">
      <circle class="cls-8" cx="547.29" cy="165.22" r="3.67"/>
    </g>
    <g id="Left-arm">
      <rect class="cls-6" x="529.93" y="162.3" width="16.04" height="6.11" rx="3.06" ry="3.06"/>
    </g>
    <g id="Hand-2" data-name="Hand">
      <circle class="cls-8" cx="562.84" cy="168.68" r="4.2"/>
    </g>
    <g id="Body_Right-arm" data-name="Body + Right-arm">
      <path class="cls-6" d="m559.81,170.67c0,1.7-1.17,3.23-2.9,3.62l-12.15,2.79c-1.43.33-2.85-.21-3.71-1.28-.36-.08-.71-.21-1.04-.4l-8.15-4.71c-.03.64-.11,1.29-.25,1.95,0,0-1.25,8.87-2.75,13.12-15.56,1.48-30.21-2.23-34.97-4.16-1.03-.42,6.22-16.48,6.22-16.48,1.93-3.68,5.14-7.25,9.06-8.32.08-.04.16-.08.26-.11,4.27-1.7,9.98-1.45,15.41,1.64.44.07.87.22,1.28.45l17.61,10.17c.27.16.52.34.74.55l10.78-2.46c2.01-.46,4,.79,4.46,2.8.07.28.1.56.1.84Z"/>
    </g>
    <g id="Head">
      <g id="Head-2" data-name="Head">
        <ellipse class="cls-8" cx="519.65" cy="145.5" rx="21" ry="15.55"/>
      </g>
      <g id="Left-Ear">
        <g>
          <path d="m508.27,116.27c-.45.99-1.46,1.89-2.79,2.38-.73.27-1.46.38-2.13.35-1.36-.05-2.49-.67-2.88-1.72-.58-1.56.73-3.48,2.92-4.29,2.19-.81,4.43-.2,5.01,1.37.22.61.16,1.28-.13,1.91Z"/>
          <path class="cls-8" d="m503.58,119.28c-.08,0-.16,0-.24,0-1.51-.06-2.71-.79-3.12-1.9-.24-.66-.2-1.39.14-2.12.5-1.08,1.6-2.03,2.94-2.52,2.32-.86,4.73-.17,5.36,1.53.24.66.2,1.39-.13,2.12h0c-.5,1.09-1.6,2.03-2.94,2.53-.66.24-1.35.37-2,.37Zm1.75-6.37c-.59,0-1.22.11-1.84.34-1.21.45-2.2,1.28-2.64,2.24-.27.59-.31,1.18-.12,1.7.33.9,1.34,1.49,2.63,1.54.65.03,1.35-.08,2.02-.33,1.21-.45,2.2-1.28,2.64-2.24.27-.59.31-1.18.12-1.7-.36-.98-1.48-1.55-2.81-1.55Z"/>
        </g>
        <g id="Left-Ear-2" data-name="Left-Ear">
          <path class="cls-8" d="m515.7,133.34c-2.83,1.08-7.81,2.14-9.62,2.51,4.49-1.4,3.17-11.64-2.73-16.85.67.03,1.4-.08,2.13-.35,1.34-.49,2.34-1.4,2.79-2.38.51,3.27,2.9,16.83,7.43,17.07Z"/>
        </g>
      </g>
      <g id="Right-Ear">
        <g>
          <path d="m539.39,119.84c0,1.27-1.1,2.36-2.66,2.8-.49.14-1.01.22-1.56.22-1.68,0-3.14-.7-3.81-1.72-.26-.39-.41-.83-.41-1.29,0-1.67,1.89-3.02,4.22-3.02s4.23,1.35,4.23,3.02Z"/>
          <path class="cls-8" d="m535.17,123.13c-1.72,0-3.3-.72-4.04-1.85-.3-.45-.45-.94-.45-1.44,0-1.81,2.02-3.29,4.49-3.29s4.5,1.47,4.5,3.29c0,1.37-1.12,2.57-2.86,3.06-.52.15-1.07.23-1.64.23Zm0-6.03c-2.18,0-3.95,1.23-3.95,2.74,0,.4.12.78.36,1.14.64.97,2.05,1.6,3.58,1.6.52,0,1.02-.07,1.49-.21,1.5-.42,2.46-1.42,2.46-2.54,0-1.51-1.77-2.74-3.95-2.74Z"/>
        </g>
        <g id="Right-Ear-2" data-name="Right-Ear">
          <path class="cls-8" d="m532.39,140.93s-5.29-4.14-9.89-6.68c3.98.62,8.59-8.8,8.85-13.11.67,1.02,2.13,1.72,3.81,1.72.55,0,1.08-.08,1.56-.22-3.03,3.08-7.76,14.67-4.34,18.29Z"/>
        </g>
      </g>
      <g id="Eye">
        <circle cx="532.86" cy="146.08" r="3.72"/>
        <path d="m538.44,146.62c-.12,0-.24-.04-.34-.12l-7.5-6.1c-.23-.19-.27-.53-.08-.77.19-.23.53-.27.77-.08l7.5,6.1c.23.19.27.53.08.77-.11.13-.27.2-.42.2Z"/>
      </g>
      <g id="Mouth">
        <g>
          <path class="cls-3" d="m532.61,157.73s-4.59-.76-7.79-.69c-3.2.07-4.73-2.02-4.66-3.69s.63-3.2,3.06-2.85,5.23.09,7.52.28c2.57.21,6.75.31,7.66.97s-5.78,5.98-5.78,5.98Z"/>
          <path d="m532.65,157.88h-.06s-4.61-.77-7.77-.7c-1.98.04-3.15-.71-3.78-1.35-.69-.7-1.06-1.6-1.02-2.48.05-1.22.36-2.05.94-2.53.53-.44,1.3-.59,2.28-.45,1.35.19,2.83.2,4.25.2h.3c1.04,0,2.03,0,2.96.08.55.04,1.17.08,1.82.12,2.42.15,5.16.33,5.91.88.09.07.14.16.14.28.02,1.16-5.31,5.43-5.92,5.92l-.05.04Zm-7.41-.98c2.94,0,6.81.6,7.34.69,2.34-1.87,5.78-4.89,5.77-5.66,0-.04-.01-.06-.03-.07-.68-.5-3.5-.68-5.76-.82-.65-.04-1.27-.08-1.82-.12-.96-.08-1.99-.08-3.09-.08-1.5,0-3.02,0-4.44-.2-.9-.13-1.6,0-2.07.39-.52.43-.79,1.19-.84,2.33-.03.8.31,1.63.94,2.28.59.6,1.69,1.31,3.58,1.27.14,0,.28,0,.42,0Z"/>
        </g>
        <rect x="520" y="153.52" width="6.42" height=".27" transform="translate(367.5 676.26) rotate(-89.78)"/>
        <rect x="523.37" y="153.77" width="6.42" height=".27" transform="translate(370.62 679.88) rotate(-89.78)"/>
        <rect x="526.45" y="153.97" width="6.76" height=".27" transform="translate(373.65 683.32) rotate(-89.78)"/>
        <rect x="530.04" y="153.98" width="6.35" height=".27" transform="translate(377.01 686.72) rotate(-89.78)"/>
        <rect x="533.87" y="152.94" width="3.89" height=".27" transform="translate(380.66 688.29) rotate(-89.78)"/>
        <rect x="528.47" y="145.21" width=".27" height="16.92" transform="translate(364.27 679.05) rotate(-88.84)"/>
      </g>
    </g>
  </g>
  <g id="Glass-bubble" class="cls-5">
    <ellipse class="cls-4" cx="521.63" cy="141.98" rx="63.27" ry="43.64"/>
  </g>
  <rect class="cls-12" x="499.65" y="274.56" width="6.78" height="25.66"/>
  <rect class="cls-12" x="454.96" y="274.56" width="6.78" height="25.66"/>
</svg>